<?xml version="1.0" standalone="no"?>
<!DOCTYPE svg PUBLIC "-//W3C//DTD SVG 1.1//EN" "http://www.w3.org/Graphics/SVG/1.1/DTD/svg11.dtd" >
<svg xmlns="http://www.w3.org/2000/svg" xmlns:svg="http://www.w3.org/2000/svg" xmlns:xlink="http://www.w3.org/1999/xlink" viewBox="0 0 1024 1024"><path d="M474.18 312.93Q487.38 314.26 479.31 321.09Q452.69 297.26 495.41 280.17Q500.33 276.52 544.84 293.94Q574.02 288.97 562.26 290.06H679.78L653.23 285.86Q657.44 279.04 641.48 248.34Q672.85 205.44 664.26 192.88Q664.62 154.93 642.98 139.37Q629.58 125.66 663.68 135.68Q660.62 103.54 677.27 127.69Q686.37 104.07 702.33 142.27Q702.79 171.91 733.14 218.34L742.29 296.52L814.34 273.6Q890.69 292.09 890.81 293.82Q916.48 288.59 914.84 328.19Q923.26 325.47 921.16 305.78Q916.64 314.22 890.04 340.31Q907.89 332.49 888.11 365.64Q878.71 364.41 834.48 362.1Q788.96 344.92 801.56 357.58Q769.12 352.18 757.81 364.56Q747.99 395.83 785.85 431.71Q805.25 512.62 788.81 539.37Q786.37 569.08 822.92 581.28Q829.52 601.74 831.01 584.13Q801.96 641.91 847.87 712.65Q839.83 785.1 854.32 793.96Q863.59 799.16 881.58 798.01Q860.03 806.84 871.52 779.21Q906.11 761.89 936.4 757.11Q915.52 742.99 953.91 777.31Q945.47 760.87 954.64 794.9Q936 818.9 942.21 868.35Q901.04 917.12 904.09 918.08Q873.58 926.02 884.8 939.48Q875.58 918.98 890.34 908.98Q881.4 919.44 833.61 898.54Q839.62 883.66 781.47 794.3Q759.19 725.61 757.37 640.65Q717.85 565.15 693 487.88Q708.13 369.71 669.13 356.02Q700.28 352.11 648.1 370.81Q615.46 368 563.87 384.22Q487.96 370.2 491.31 355Q472.56 370.31 456.72 345.65Q447.76 341.33 482.13 333.03ZM119.58 703.82Q122.8 677.5 118.25 638.83L120.58 645.46L257.89 651.59Q346.91 644.41 382.96 668.71Q429.01 667.31 416.67 646.9Q433.32 676.3 427.61 672Q431.1 681.75 421.44 732.29Q405.87 717.94 409.61 751.79Q409.84 833.8 414.74 856.31Q397.26 907.07 378.71 894.51Q404.72 917.24 339.5 897.51Q310.36 912.18 258.35 921.31Q225.56 918.5 246.19 893.7Q156.83 928.91 134.46 911.29Q124.16 889.12 128.05 807.09Q94.68 770.74 113.56 708.77Q92.03 700.46 105.45 704.11ZM438.46 784.13Q457.57 751.01 477.93 731.12Q490.34 752.65 522.38 729.03Q537.04 730.37 542.47 725.33Q516.68 744.84 506.44 736.4Q528.2 712.73 552.2 727.09Q545.7 698.04 528.22 696.67Q527.26 692.83 529.87 650.23L537.94 603.78H487.16Q484.83 575.09 442.67 595.94Q435.54 564.66 446.16 572.39Q462.29 560.38 428.71 561.71Q451.38 546.02 468.85 514.97Q467.61 516.29 451.99 516Q492.46 530.01 570.45 510.03Q635.96 521.8 666.79 519.21Q675.16 517.32 670.09 552.42Q692.62 558.36 696.18 546.41Q701.85 548.95 705.35 545.49Q670.46 570.83 688.46 597.98Q642.38 570.55 633.13 605.65H619.65L619.37 664.43L634.5 727.29L642.54 700.49Q664.97 705.18 663.02 708.93Q662.47 696.34 682.88 717.89Q712.53 711.73 721.86 728.88Q722.14 732.04 695.75 748.47Q692.96 782.43 689.12 766.39Q685.49 797.09 635.67 795.31Q572.77 786.99 568.03 807.42Q532.3 829.63 534.71 832.26Q490.36 826.36 452.29 831.9Q446.69 843.92 448.98 829.38Q451.96 849.75 437.95 799.84Q439.04 786.7 433.22 802.61Q429.2 782.95 428.22 795.39ZM79.66 267.39Q53.99 260.66 89.36 248.42Q85.77 249.35 124.49 244.68Q144.3 255.78 254.22 257.54Q313.73 258.65 354.14 256.3Q409.12 252.7 410.87 256.44Q440.02 269.98 430.97 292.46Q430.65 276.25 409.14 291.3Q411.04 323.38 395.09 309.59Q384.08 313.74 311.77 314.87Q286.3 320.03 246.39 302.4Q179.93 319.85 142.79 335.3Q63.13 318.54 59.65 302.57Q75.87 316.56 52.62 285.8Q66.82 281.85 65.72 306.33ZM188.65 759.2Q201.04 814.86 197.84 836.66Q170.84 820.06 186.49 853.06L205.31 848.8Q229.84 823.75 254.58 848.35Q294 858.49 286.33 858.6Q330.49 847.22 337.37 852.07Q336.87 836.2 330.59 822.49Q344.2 823.76 341.76 825.17Q356 808.34 342.76 773.17V712.27H170.56ZM127.45 388.78Q145.29 362.37 168.84 386.52Q163.13 371.61 190.3 351.22Q243.21 374.39 306.1 347Q323.07 383.76 355.53 368.29Q370.15 382.69 362.91 414.52Q378.65 413.35 394.83 380.29Q366.21 407.19 393.85 416.15Q390.92 410.89 364.28 421.86Q310.81 452.83 217.29 442.83Q210.19 428.68 182.72 442.53Q188.39 465.11 144.52 440.74Q145.19 441.3 141.16 429.48Q142.35 422.37 135.02 409.87Q144.48 393.56 124.23 418.4Q136.97 413.74 149.72 371.68ZM131.45 110.94Q128.63 108.72 153.3 84.37Q145.24 111.15 146.67 112.88H157.15Q171.22 112.14 202.65 80.1Q194.81 111.84 211.19 89.44Q273.15 109.55 306.67 111.68Q333.51 110.53 360.79 149.56Q364.64 132.02 359.7 148.33Q360.32 178.33 366.67 184.98Q353.67 171.95 358.1 202.09Q331.81 220.31 335.44 218.88Q298.44 202.84 288.1 189Q276.35 209.96 247.89 170.06Q234.23 166.53 234.68 184.24Q187.84 182.25 194.69 164.68Q141.45 171.14 146.64 156.46Q119.2 159.38 126.75 112.5Q136.21 131.52 114.46 129.87ZM173.81 513.08Q149.63 529.61 169.33 519.81Q199.33 514.1 219.55 502.46Q237.65 509.75 258.04 513.19Q262.61 525.53 265.43 500.1Q347.01 511.98 347.49 523.39Q360.98 516.94 377.44 534.88Q379.32 541.2 373.43 529.63Q347.08 552.21 362.84 549.92Q380.42 587.38 351.31 572.99Q316.16 599.72 294.01 594.95Q256.8 579.59 237.56 595.02Q219.32 600.4 199.53 583.69Q157.64 575.13 160.15 541.08Q157.08 542.77 151.62 534.02Q136.65 521.28 163.85 539.95ZM761.61 154.96Q759.62 158.92 772.83 136.78Q787.18 138.8 782.27 125.72Q811.44 143.53 835.54 149Q877.78 186.51 888.35 230.74Q858.02 240.94 863.32 214.78Q866.7 256.74 849.86 270.57Q878.46 260.1 833.82 280.27Q826.42 284.35 800.06 263.93Q775.83 212.97 759.55 195Q771.63 169.32 769.93 153.45Q768.58 153.65 753.98 177.11Z" fill="black"></path></svg>